<svg width="34" height="33" viewBox="0 0 34 33" fill="none" xmlns="http://www.w3.org/2000/svg">
<rect width="34" height="33" rx="16.5" fill="white"/>
<path d="M30.6 14.025H17.2834V19.1125H25.075C24.9334 20.35 24.0834 22.275 22.2417 23.5125C21.1084 24.3375 19.4084 24.8875 17.2834 24.8875C13.6 24.8875 10.3417 22.55 9.20837 19.1125C8.92503 18.2875 8.78337 17.325 8.78337 16.3625C8.78337 15.4 8.92503 14.4375 9.20837 13.6125C9.35003 13.3375 9.35003 13.0625 9.4917 12.925C10.7667 10.0375 13.7417 7.975 17.2834 7.975C19.975 7.975 21.675 9.075 22.8084 10.0375L26.775 6.1875C24.3667 4.125 21.1084 2.75 17.2834 2.75C11.7584 2.75 6.9417 5.775 4.67503 10.3125C3.68337 12.2375 3.1167 14.3 3.1167 16.5C3.1167 18.7 3.68337 20.7625 4.67503 22.6875C6.9417 27.225 11.7584 30.25 17.2834 30.25C21.1084 30.25 24.3667 29.0125 26.6334 26.95C29.325 24.6125 30.8834 21.0375 30.8834 16.775C30.8834 15.675 30.7417 14.85 30.6 14.025Z" stroke="black" stroke-width="1.5" stroke-miterlimit="10" stroke-linecap="round" stroke-linejoin="round"/>
</svg>
